<svg xmlns="http://www.w3.org/2000/svg" width="256" height="256" viewBox="0 0 256 256" role="img" aria-labelledby="title description">
  <title id="title">IMCS Logo</title>
  <desc id="description">A blue infrastructure management logo with server racks and connected nodes.</desc>
  <defs>
    <linearGradient id="background" x1="32" y1="24" x2="224" y2="232" gradientUnits="userSpaceOnUse">
      <stop stop-color="#2563EB"/>
      <stop offset="1" stop-color="#0F2F6B"/>
    </linearGradient>
    <linearGradient id="accent" x1="76" y1="70" x2="181" y2="187" gradientUnits="userSpaceOnUse">
      <stop stop-color="#A7F3D0"/>
      <stop offset="1" stop-color="#38BDF8"/>
    </linearGradient>
    <filter id="shadow" x="-20%" y="-20%" width="140%" height="140%">
      <feDropShadow dx="0" dy="8" stdDeviation="10" flood-color="#071A3A" flood-opacity="0.28"/>
    </filter>
  </defs>
  <rect width="256" height="256" rx="58" fill="url(#background)"/>
  <path d="M49 73 128 28l79 45v110l-79 45-79-45V73Z" fill="#FFFFFF" fill-opacity="0.08" stroke="#FFFFFF" stroke-opacity="0.22" stroke-width="3"/>
  <g filter="url(#shadow)">
    <rect x="70" y="67" width="116" height="122" rx="18" fill="#071A3A" fill-opacity="0.72" stroke="#FFFFFF" stroke-opacity="0.5" stroke-width="3"/>
    <rect x="84" y="82" width="88" height="25" rx="7" fill="#FFFFFF" fill-opacity="0.94"/>
    <rect x="84" y="116" width="88" height="25" rx="7" fill="#FFFFFF" fill-opacity="0.94"/>
    <rect x="84" y="150" width="88" height="25" rx="7" fill="#FFFFFF" fill-opacity="0.94"/>
    <circle cx="99" cy="94.5" r="4.5" fill="#22C55E"/>
    <circle cx="99" cy="128.5" r="4.5" fill="#38BDF8"/>
    <circle cx="99" cy="162.5" r="4.5" fill="#A7F3D0"/>
    <path d="M115 94.5h42M115 128.5h42M115 162.5h42" stroke="#0F2F6B" stroke-width="5" stroke-linecap="round" opacity="0.72"/>
  </g>
  <path d="M128 54V38M57 97H39M217 97h-18M66 200l13-14M190 186l13 14" stroke="url(#accent)" stroke-width="7" stroke-linecap="round"/>
  <circle cx="128" cy="31" r="9" fill="#A7F3D0"/>
  <circle cx="31" cy="97" r="9" fill="#38BDF8"/>
  <circle cx="225" cy="97" r="9" fill="#A7F3D0"/>
  <circle cx="60" cy="207" r="9" fill="#A7F3D0"/>
  <circle cx="196" cy="207" r="9" fill="#38BDF8"/>
</svg>
